# xmcd CD database file
#
# Track frame offsets:
#	150
#	11547
#	22160
#	33300
#	47012
#	57762
#	66530
#	75602
#	88500
#	99105
#	108567
#	118615
#	130110
#	141060
#	152577
#	164052
#	175807
#	186372
#
# Disc length: 2621 seconds
#
# Revision: 0
# Processed by: cddbd v1.5.1PL0 Copyright (c) Steve Scherf et al.
# Submitted via: CDex 1.51
#
DISCID=ed0a3b12
DTITLE=Patsy Cline - Patsy Cline
DYEAR=1996
DGENRE=Country
TTITLE0=Crazy Dreams
TTITLE1=I Don't Wanna
TTITLE2=Just Out Of Reach
TTITLE3=A Church A Courtroom And Then Goodbye
TTITLE4=I Cried All The Way To The Altar
TTITLE5=Try Again
TTITLE6=I Love You Honey
TTITLE7=Life's A Railway To Heaven
TTITLE8=Honky Tonk Merry Go Round
TTITLE9=I'm Moving Along
TTITLE10=Three Cigarettes In An Ashtray
TTITLE11=Walking After Midnight
TTITLE12=I Can't Forget
TTITLE13=Let The Teardrops Fall
TTITLE14=I've Loved And Lost Again
TTITLE15=If I Could Only Stay Asleep
TTITLE16=I Can See An Angel
TTITLE17=How Can I Face Tomorrow
EXTD=YEAR: 1996
EXTT0=
EXTT1=
EXTT2=
EXTT3=
EXTT4=
EXTT5=
EXTT6=
EXTT7=
EXTT8=
EXTT9=
EXTT10=
EXTT11=
EXTT12=
EXTT13=
EXTT14=
EXTT15=
EXTT16=
EXTT17=
PLAYORDER=
